<svg version="1.1" preserveAspectRatio="none" xmlns="http://www.w3.org/2000/svg" width="500" height="500" viewBox="0 0 500 500"><rect width="100%" height="100%" fill="#EDECEB" fill-opacity="1"/><svg viewBox="-17.0584 -108.2774 434.1168 512" width="282.345496875" height="333" x="108.8273px" y="83.5px" xmlns="http://www.w3.org/2000/svg" xmlns:xlink="http://www.w3.org/1999/xlink" preserveAspectRatio="none"><defs></defs><style>.companyName {fill:#5B4B42;fill-opacity:1;}.icon1 {fill:#B3D0D9;fill-opacity:1;}.icon2 {fill:#99A08E;fill-opacity:1;}.icon3 {fill:#DFC4B5;fill-opacity:1;}.icon3-str {stroke:#DFC4B5;stroke-opacity:1;}.text {fill:#5D4B40;fill-opacity:1;}</style><g opacity="1" transform="rotate(0 65.001 -108.2774)">
<svg width="269.998" height="400" x="65.001" y="-108.2774" version="1.1" preserveAspectRatio="none" viewBox="45.99993896484375 20.000701904296875 108.00028991699219 160.0016326904297">
  <g transform="matrix(1 0 0 1 0 0)"><g><path d="M126.825 79.459c-.145-.81-.676-1.513-1.626-1.576l-5.745-.38a2.352 2.352 0 0 0-1.176.215l-12.211-.274c-2.815-.063-5.294-.621-8.109-.415l-2.612-.13c-1.345-.067-4.105-.501-5.419-.095-3.06.944-2.401 4.526-.976 6.965.068.117.141.231.211.347.236 2.237 2.227 4.423 3.681 6.06l.486.547c1.862 3.721 4.625 6.868 8.04 9.28 2.405 2.522 5.254 4.517 8.916 4.394 3.651-.123 7.131-2.48 9.194-5.424 1.182-1.686 2.015-3.537 2.659-5.463a42.105 42.105 0 0 0 3.26-6.475c.325-.292.65-.585.975-.886 1.861-1.719 2.665-5.015.452-6.69z" data-color="1" class="icon1"></path><path d="M114.243 69.67c-.936-1.208-3.334-1.093-3.706.587-.505-.028-1.015.097-1.411.381-.06.006-.119.013-.178.023a2.442 2.442 0 0 0-1.268-.145 2.381 2.381 0 0 0-1.409-.288 2.074 2.074 0 0 0-.735-.177 1.99 1.99 0 0 0-.975.199c-.942-.213-2.019.106-2.369 1.102-.028.08-.053.161-.081.242-.298.274-.52.668-.606 1.198l-.265 1.648a36.692 36.692 0 0 0-1.224 7.61c-.008.154-.001.302.017.444-.118.764.07 1.577.55 2.2.725.941 1.803 1.235 2.937 1.288 3.084.144 6.195.062 9.283.09.862.008 1.402-.423 1.652-1.009 1.164-.154 1.738-1.18 1.773-2.275l.351-11.282c.041-1.324-1.203-1.956-2.336-1.836z" data-color="1" class="icon1"></path><path d="M140.513 156.381c-.042-10.427-.424-20.854-.806-31.276-.169-4.61-.338-9.225-.82-13.812-.35-3.333-.865-6.647-1.38-9.958l-1.826-11.744c-.254-1.632 5.68-5.212 4.901-6.666-1.258-2.349-5.703-2.417-8.007-3.731-2.349-1.339-4.984-.79-7.591-1.49-1.769-.475 1.145 12.999-15.713 14.826-15.469 1.676-17.022-16.115-18.832-16.093-1.303.016-8.418.943-9.347 1.894-.943.965-4.674 4.907-4.902 6.191a31.338 31.338 0 0 0-.061 10.627c.437 2.616 1.209 5.186 1.339 7.836.098 2.012-.178 4.021-.428 6.02-2.437 19.447-2.326 39.021-1.017 59.153.107 1.65.362 3.294 1.115 4.763.94 1.832 3.154 3.326 5.162 3.716 10.776 2.096 19.512 2.6 29.223 2.796 7.94.16 15.435 1.811 22.722-1.375 2.297-1.004 4.677-2.083 5.561-4.445.46-1.23.512-2.572.551-3.886.13-4.45.174-8.898.156-13.346z" data-color="2" class="icon2"></path><path d="M152.579 115.705a368.905 368.905 0 0 1-.584-4.106c-1.303-9.398-2.688-19.133-9.034-25.924a15.032 15.032 0 0 0-1.193-1.129c-1.939-2.515-4.152-4.273-7.269-4.324-1.415-.195-2.762-.013-3.873.763-3.76 2.627-.123 11.461.094 15.395.682 12.404 7.173 45.837 20.124 43.083 4.042-.86 3.02-7.182 3.089-11.348.069-4.167-.736-8.29-1.354-12.41z" data-color="1" class="icon1"></path><path d="M153.341 114.929c-1.303-9.398-3.367-22.772-9.713-29.564-.331-.354-.74-.949-1.156-1.387-2.185-2.3-4.857-3.706-7.974-3.757-1.415-.195-2.762-.013-3.873.763-3.76 2.627-.123 11.461.094 15.395.682 12.404-.132 20.976 12.819 18.222 4.043-.86 9.995 1.708 9.803.328z" data-color="2" class="icon2"></path><path d="M129.886 103.804c0 1.491 1.607 8.1 3.169 9.975s6.915 1.407 10.931 1.566c4.015.159 8.023 1.415 9.357.497.711-.49.355-3.119-.36-6.975-.449-2.424-.468-5.048-1.214-4.988-1.621.132-5.998 1.49-12.244 1.25-6.248-.24-9.639-2.525-9.639-1.325z" data-color="2" class="icon2"></path><path d="M124.331 54.139c-.362-2.921-.865-5.654-2.655-8.039-2.158-2.877-3.456-7.987-6.966-9.172-4.753-1.605-11.077 2.061-14.299 5.5-3.301 3.524-4.468 9.93-4.236 14.556.476 9.511.976 15.444 8.917 20.46 3.697 2.335 7.89-.212 10.538-2.465 2.726-2.319 5.033-4.637 6.444-7.9 1.893-4.378 2.847-8.186 2.257-12.94z" data-color="1" class="icon1"></path><path d="M107.038 69.189c.97.403 2.531.551 3.386.272.83-.271 1.172-.5 2.103-1.244.667-.533.283-.802.088-.887-2.358-1.023-6.46-1.4-7.806-1.298-.209.016-.325-.038-.281.477.1 1.181 1.707 2.347 2.51 2.68z" opacity=".24"></path><path d="M117.414 55.566c-.09-.503-.682-.84-1.067-.468-.737.711-.683 1.833-.556 2.236.154.489.857.559 1.146.17a2.51 2.51 0 0 0 .477-1.938z" opacity=".69"></path><path d="M103.903 53.34c-.103-.513-.69-.638-1.092-.448-.639.301-.926 2.097-.745 2.236v.013c.006.59.851 1.067 1.269.53.535-.687.741-1.469.568-2.331z" opacity=".69"></path><path d="M109.472 62.659a.424.424 0 0 1-.144-.025c-1.86-.676-2.866-1.421-3.163-2.344-.373-1.155.403-2.31 1.302-3.647.465-.691.945-1.406 1.335-2.205a.424.424 0 0 1 .57-.195.431.431 0 0 1 .194.575c-.416.852-.936 1.625-1.394 2.307-.773 1.151-1.441 2.144-1.197 2.899.207.641 1.071 1.23 2.642 1.801a.43.43 0 0 1-.145.834z" opacity=".69"></path><path d="M121.756 52.477c-.411-.357-1.637-1.006-1.774-1.083-1.393-.785-3.678-1.017-5.255-.549-.843.25-.814 1.004-.163 1.351.552.294 1.531.309 2.509.366 1.205.07 3.315.904 4.524.898.662-.004.608-.593.159-.983z" opacity=".69"></path><path d="M106.933 49.628a.79.79 0 0 0-.158-.193c-.67-.544-1.16-.686-1.959-.773-1.035-.112-3.347-.299-3.92.746a.531.531 0 0 0 .476.773c1.149.005 1.956.001 2.868.266.735.213 1.948.865 2.65.251.401-.349.26-.662.043-1.07z" opacity=".69"></path><path d="M135.684 50.937c-.738-2.324.071-4.956-.055-7.408-.115-2.223-.617-4.653-2.01-6.494-1.178-1.557-2.481-3.051-4.133-3.957a3.223 3.223 0 0 1-.368-.235 6.965 6.965 0 0 0 1.585-2.684c.142-.094.279-.2.406-.319 1.52-1.421 2.937-4.008 1.534-5.975a3.051 3.051 0 0 0-.682-.699 3.52 3.52 0 0 0-.466-.956 5.03 5.03 0 0 0-.325-.417 4.42 4.42 0 0 0-1.981-1.504c-2.441-.926-4.879.479-5.858 2.782-.14.329-.291.742-.426 1.181-.8.72-1.595 1.529-1.874 2.512-1.575-1.002-3.43-1.523-5.289-1.567-2.995-.07-5.729 1.09-8.168 2.739-5.561 1.639-7.243 3.556-9.914 8.604-1.264 2.389-2.231 2.876-2.565 5.914-.546 4.961-1.97 10.688-.037 14.337.417.788 1.959 6.241 1.822 5.368-.318-2.024.397-5.341.724-7.338.313-1.908-.01-2.703.598-4.544 1.467-4.442.644-7.561 6.275-8.948.775-.191 2.252-2.073 2.709-2.3 1.357-.675 5.052-2.171 5.52-2.15-1.19 2.5.284 4.268 1.735 5.15 1.809 1.1 2.063 1.702 3.173 2.625 1.847 1.538 2.86.42 4.164 2.125.886 1.159.67 3.223 1.206 4.578.283.714.443 1.51.842 2.172.06.099.126.198.195.295-.055.16-.079.345-.058.557l.013.131a1.36 1.36 0 0 0-.03.546l.162 1.209-.338 7.23-.034.282-.215 1.073a1.29 1.29 0 0 0 .014.601l-.007.055c-.03.253.005.471.079.659-.266.863.269 1.658 1.103 1.645 3.861-.061 7.09-2.489 8.712-5.98.214-.283.385-.584.47-.898.591-.336.868-.99.854-1.671.216-.307.333-.683.345-1.079.047-.11.084-.221.101-.331.022-.047.044-.093.064-.143.075-.19.142-.38.204-.57.111-.206.186-.443.208-.717l.003-.037a8.313 8.313 0 0 0 .222-1.839c.101-.423.157-.857.162-1.304a7.414 7.414 0 0 0-.371-2.306z" data-color="3" class="icon3"></path><path d="M126.262 60.294c-.023-2.353.721-4.511 1.932-6.53a4.307 4.307 0 0 1 1.06-1.193c.97-.735 1.99-.418 2.379.708.124.359.194.751.196 1.128.02 3.234-1.122 5.963-3.927 7.954-.121.086-.239.181-.375.242-.741.332-1.338.023-1.396-.743-.021-.281.063-.567.089-.852.023-.237.029-.476.042-.714z" data-color="1" class="icon1"></path><path d="M127.74 59.905l-.022-.001a.286.286 0 0 1-.261-.308c.181-2.346.766-4.055 1.74-5.079.697-.733 1.366-.851 1.509-.843a.285.285 0 0 1 .266.303.285.285 0 0 1-.281.269c-.043.005-.526.08-1.085.667-.605.637-1.371 1.973-1.584 4.727a.284.284 0 0 1-.282.265z" opacity=".69"></path><path d="M130.219 56.94a.286.286 0 0 1-.275-.356c.095-.384.074-.693-.065-.918a.799.799 0 0 0-.454-.341.286.286 0 0 1-.216-.341.282.282 0 0 1 .338-.218c.021.004.521.12.815.599.222.361.267.818.133 1.359a.287.287 0 0 1-.276.216z" data-color="4" class="icon1"></path><path d="M82.07 78.078c-5.128 1.541-6.172 3.151-8.65 5.55-6.61 6.399-12.162 13.197-16.036 21.5-3.615 7.747-10.065 20.208-10.883 28.826-.497 5.237 5.369 4.824 9.66 4.333 5.386-.616 9.749-1.548 12.228-7.608 2.113-5.165 6.911-10.965 9.468-16.95 1.239-2.9 2.811-8.646 1.834-14.4-1.413-8.32 4.111-21.771 2.379-21.251z" data-color="1" class="icon1"></path><path d="M82.41 77.735c-5.128 1.541-8.142 3.524-10.62 5.923-6.61 6.399-13.041 16.33-16.988 25.717-1.194 2.839 12.495 11.638 18.566 12.868 1.868.379 4.991-7.955 5.529-9.214 1.239-2.9 2.464-8.046 1.487-13.8-1.412-8.32 3.758-22.015 2.026-21.494z" data-color="2" class="icon2"></path><path d="M85.881 134.039c.089-.455.88-.816.972-1.265.003-.014-3.536.299-3.824.322-2.403.189-4.851.312-7.26.166-2.5-.151-4.964-.663-7.463-.821a227.075 227.075 0 0 1-8.359-.705c-2.991-.301-9.466-2.451-11.874-.355-2.865 2.494-2.301 8.937-1.044 12.013 2.867 7.013 9.432 7.383 16.253 7.235 3.28-.071 7.311-.621 11.6-1.6 4.261-.973 7.306-1.548 11.424-3.019.227-.081.756-.163.82-.381.058-.197-.296-.856-.363-1.067-.876-2.773-1.284-5.11-1.117-8.018.059-1.039.035-1.482.235-2.505z" data-color="1" class="icon1"></path><path d="M124.069 54.886c.004 1.035-.372 1.874-.655 2.843-.243.832-.372 1.75-.827 2.496-.595.976-1.403 1.588-1.701 2.745-.409 1.585-1.055 2.502-1.855 3.892-1.084 1.883-1.658 3.67-3.91 4.449-2.281 1.247-5.065.684-7.525.894a5.38 5.38 0 0 1-.476.023c-2.655 0-4.817-1.603-6.15-3.834-1.48-2.479-1.424-4.979-2.002-7.688-.415-1.945-1.19-3.908-1.364-5.886-1.283-.465-2.971.275-2.796 2.072.483 4.961.439 7.065 1.339 11.973.61 3.324 0 8.603 5.685 11.537 1.629.841 3.589 1.351 5.391 1.666l.059-.005c2.095-.132 4.743.451 6.711-.365.828-.343 1.511-.961 2.282-1.42.729-.434 1.583-.744 2.179-1.372.622-.656 1.015-1.578 1.425-2.375.698-1.358 1.047-2.955 1.627-4.378 1.292-3.166 2.607-6.352 3.727-9.573a31.03 31.03 0 0 0 1.325-5.316c.264-1.659-1.225-2.571-2.489-2.378z" data-color="3" class="icon3"></path><path d="M132.177 70.851l-6.251.235a1.503 1.503 0 0 1-1.205-1.738l1.533-13.297c.142-.812.783-1.166 1.723-1.216l5.869-.453a1.503 1.503 0 0 1 1.205 1.738l-1.15 13.515a1.493 1.493 0 0 1-1.724 1.216z" data-color="5" class="icon2"></path><path d="M137.851 67.379a11.408 11.408 0 0 0-.18-1.7c.002-.009-1.365-3.198-3.067-4.303-.169-.11-.183 4.803-2.684 2.825-.157-.221-.292-.41-.396-.539-.817-1.011-1.606-2.06-2.465-3.035a9.453 9.453 0 0 0-.506-.53 5.333 5.333 0 0 0-1.685-1.459c-.545-.291-1.524-1.016-2.177-.742-.408.172-.989 1.356-.899 1.79.091.442.448.838.687 1.206.159.245.353.487.554.732 1.212 1.471 2.435 2.933 3.655 4.397-1.357-.592-2.487-.834-3.092-1.192-.751-.444-1.783-.472-2.609-.77-.891-.322-1.571-.011-2.049.615-.136-.005-1.73 5.027-1.403 6.073.445 1.422 1.782 2.737 2.958 3.864a.998.998 0 0 0 .115.364l.077.141a.658.658 0 0 0 .05.398c1.599 3.621 5.281 6.273 5.861 10.33.136.951 1.618.818 1.481-.141a8.832 8.832 0 0 0-.305-1.342c.323.412.552.893.651 1.427.149.8 1.309.936 1.473.059l.048-.258c.072.003.144.005.22-.003.855-.094.828-1.311.117-1.477.49-.327.89-.805 1.093-1.364.185.086.388.153.612.193 1.214.216 2.863-.683 2.929-2.069.092-1.94.213-3.878.354-5.815.356-2.191.603-4.736.598-6.807l.007-.071c.031-.279.02-.546-.023-.797z" data-color="1" class="icon1"></path><path d="M125.189 107.254c.037-.144.074-.296.034-.44a.665.665 0 0 0-.112-.212 2.57 2.57 0 0 0-.064-.082c-1.089-1.361-1.517-1.898-3.329-2.05-1.814-.184-3.879-.119-5.771-.098a44.37 44.37 0 0 0-1.331.007l-9.022-.003-4.666-.002c-1.564-.001-3.243-.049-4.791.023-.809.038-1.673-.011-2.463.207-.703.194-.879.649-.686 1.329.421 1.483-.477 3.094 1.279 3.695 1.208.414 2.54.295 3.792.399 2.283.189 4.647.185 7.002.233a66.323 66.323 0 0 0 3.608-.048c-.627.682-.916 1.709-.808 2.64.118 1.006.697 1.897 1.807 2.112.949.184 2.029.119 3.019.098.22.004.442.003.661-.005l.035-.001 4.719.003 2.441.002c.818.001 1.697.049 2.506-.023.753-.067 1.709-.272 1.708-1.219 0-.519-.228-1.021-.208-1.54.016-.399.179-.781.196-1.181.034-.785-.742-1.203-1.53-1.438.151-.03.302-.06.448-.093 1.262-.292 1.233-1.165 1.526-2.313z" data-color="6" class="icon3"></path><path d="M106.069 119.017l-5.56-.373-.285-.019-5.56-.373c-1.882-.126-3.524 1.324-3.649 3.222l1.462 20.175c-.016.237.401 1.706.483 1.921.407 1.06 1.26 1.663 2.928 1.775l2.563.172.285.019 2.563.172c1.668.112 2.593-.371 3.135-1.368.11-.202.716-1.602.731-1.839l4.098-19.802c.125-1.9-1.312-3.556-3.194-3.682z" data-color="5" class="icon2"></path><path d="M110.715 120.456c-.431-1.021-1.436-2.91-2.983-2.944l-14.152-.949c-1.372-.092-2.313 1.095-2.313 1.095-.189.258-.725.85-1.081 1.371-.538.116-.839.385-.872.897-.057.863 1.296 1.37 2.518 1.744l16.965 1.133c1.512-.182 2.667-.531 2.724-1.394.029-.458-.288-.757-.806-.953z" data-color="3" class="icon3"></path><path d="M106.654 136.476c-.448-2.707-13.165-3.792-13.238-3.818-1.192-.427-1.969-1.592-2.031-2.866-.194-3.978-.665-2.203-2.442-.439-1.933 2.675-2.284 2.923-3.573 4.198-2.082 5.7-.338 12.177.198 12.125.227-.022.614.258.841.236.8.231 14.522.321 16.382-.282 2.776-.9 3.547-3.827 3.809-4.379.799-1.688-7.448-3.682-10.612-4.398-.098-.022-.074-.169.025-.159 2.839.282 9.697 1.461 10.006 1.413.992-.154.732-1.138.635-1.631z" data-color="1" class="icon1"></path><path d="M107.024 132.655l-15.084-.988a.823.823 0 0 1-.755-.835l-.46-3.946c.001-.484.398-.868.865-.836l16.366 1.098c.467.031.81.465.748.945l-.822 3.836a.82.82 0 0 1-.858.726z" data-color="1" class="icon1"></path><path d="M107.024 132.655l-15.084-.988a.823.823 0 0 1-.755-.835l-.46-3.946c.001-.484.398-.868.865-.836l16.366 1.098c.467.031.81.465.748.945l-.822 3.836a.82.82 0 0 1-.858.726z" opacity=".49"></path><path d="M107.724 98.59c-3.733 0-7.343-1.277-10.802-3.831-6.841-5.05-10.031-16.2-10.063-16.312a.286.286 0 0 1 .196-.353.282.282 0 0 1 .35.197c.031.11 3.17 11.073 9.852 16.006 6.328 4.672 13.186 4.935 20.383.782 7.845-4.526 8.446-8.921 8.451-8.965a.285.285 0 0 1 .315-.251.286.286 0 0 1 .249.318c-.022.191-.642 4.727-8.733 9.395-3.481 2.01-6.888 3.014-10.198 3.014z" data-color="5" class="icon2"></path><path d="M107.724 98.59c-3.733 0-7.343-1.277-10.802-3.831-6.841-5.05-10.031-16.2-10.063-16.312a.286.286 0 0 1 .196-.353.282.282 0 0 1 .35.197c.031.11 3.17 11.073 9.852 16.006 6.328 4.672 13.186 4.935 20.383.782 7.845-4.526 8.446-8.921 8.451-8.965a.285.285 0 0 1 .315-.251.286.286 0 0 1 .249.318c-.022.191-.642 4.727-8.733 9.395-3.481 2.01-6.888 3.014-10.198 3.014z" opacity=".8"></path><path d="M54.409 109.879c.32 1.231 2.98 5.189 9.047 8.365 6.828 3.575 9.462 4.421 9.927 4.273.97-.309 1.566-1.279 2.739-3.038 1.425-2.138 2.805-3.868 2.392-4.163-.508-.363-3.777-.126-9.764-3.788-5.702-3.488-7.003-4.95-8.094-6.25-1.091-1.3-2.185-3.158-2.553-3.2-.787-.089-3.889 7.049-3.694 7.801z" data-color="2" class="icon2"></path><path d="M54.409 109.849c.32 1.231 2.98 5.189 9.047 8.365 6.828 3.575 9.462 4.421 9.927 4.273.97-.309 1.566-1.279 2.739-3.038 1.425-2.138 2.805-3.868 2.392-4.163-.508-.363-3.777-.126-9.764-3.788-5.702-3.488-7.003-4.95-8.094-6.25s-2.185-3.158-2.553-3.2c-.787-.09-3.889 7.048-3.694 7.801z" opacity=".4"></path><path d="M129.117 33.272a.424.424 0 0 1-.234-.071c-.024-.016-2.45-1.625-4.595-2.904-2.233-1.332-3.551-3.209-3.606-3.288a.431.431 0 0 1 .105-.598.424.424 0 0 1 .593.105c.012.018 1.273 1.808 3.342 3.041 2.163 1.29 4.606 2.91 4.63 2.926.196.13.251.397.122.595a.426.426 0 0 1-.357.194z" data-color="2" class="icon2"></path><path d="M129.117 33.272a.424.424 0 0 1-.234-.071c-.024-.016-2.45-1.625-4.595-2.904-2.233-1.332-3.551-3.209-3.606-3.288a.431.431 0 0 1 .105-.598.424.424 0 0 1 .593.105c.012.018 1.273 1.808 3.342 3.041 2.163 1.29 4.606 2.91 4.63 2.926.196.13.251.397.122.595a.426.426 0 0 1-.357.194z" opacity=".22"></path><path d="M133.541 56.755l.004.016a.603.603 0 0 0-.574-.425l.004.002a.452.452 0 0 0-.127.017l.002-.001a.408.408 0 0 0-.075.028l-.03.016c-.008.005-.016.008-.024.014a.526.526 0 0 0-.256.352c-.088.217-.107.463.051.659a.518.518 0 0 0 .71.098.515.515 0 0 0 .261-.227c.01-.018.014-.04.023-.059a.41.41 0 0 0 .031-.49z" data-color="3" class="icon3"></path><path d="M108.977 121.004c-.005.001-.216-.014-.221-.014l-17.495-1.167c-.074-.005-.161-.101-.16-.276.001-.148.13-.264.257-.248l17.655 1.177c.213.009.268.135.254.282-.013.155-.11.222-.29.246z" data-color="5" class="icon2"></path><path d="M108.977 121.004c-.005.001-.216-.014-.221-.014l-17.495-1.167c-.074-.005-.161-.101-.16-.276.001-.148.13-.264.257-.248l17.655 1.177c.213.009.268.135.254.282-.013.155-.11.222-.29.246z" opacity=".35"></path><path d="M83.771 109.334a54.85 54.85 0 0 0-5.312 5.52c-.234.28.165.687.401.405a54.957 54.957 0 0 1 5.312-5.52c.273-.247-.13-.651-.401-.405z" opacity=".27"></path><path d="M68.36 132.429c-4.594-.834-9.241-.382-13.583 1.354-.336.134-.189.688.151.552 4.242-1.696 8.789-2.17 13.281-1.354.357.065.511-.487.151-.552z" opacity=".69"></path><path d="M150.098 116.218c-.123-.344-.671-.196-.547.152a37.157 37.157 0 0 1 2.117 14.275c-.017.368.55.367.568 0a37.571 37.571 0 0 0-2.138-14.427z" opacity=".69"></path><path d="M127.841 70.051l-6.162-3.893c-.311-.196-.596.299-.287.494l6.162 3.893c.311.197.596-.299.287-.494z" opacity=".69"></path><path d="M126.902 74.175a27.499 27.499 0 0 1-5.118-5.522c-.209-.299-.701-.013-.49.289a27.993 27.993 0 0 0 5.206 5.638c.281.23.685-.172.402-.405z" opacity=".69"></path><path d="M103.075 141.637a106.97 106.97 0 0 1-8.72-1.072c-.357-.059-.511.493-.151.552 2.942.486 5.899.85 8.87 1.093.365.03.363-.543.001-.573z" opacity=".69"></path><path d="M101.658 143.917a30.938 30.938 0 0 1-9.054-.717c-.356-.082-.508.47-.151.552 3.032.696 6.101.945 9.205.737.362-.023.365-.596 0-.572z" opacity=".69"></path><path d="M129.886 103.774c0 1.491 1.607 8.1 3.169 9.975s6.915 1.407 10.931 1.566c4.015.159 8.023 1.415 9.357.497.711-.49.355-3.119-.36-6.975-.449-2.424-.468-5.048-1.214-4.988-1.621.132-5.998 1.49-12.244 1.25-6.248-.24-9.639-2.525-9.639-1.325z" opacity=".4"></path><path d="M151.767 124.39c-.671-2.267-1.405-4.335-1.87-5.883-3.925-13.067-7.942-24.719-13.012-37.378.27.673-9.215.778-9.16 1.658.753 12.114 1.255 24.17 1.933 29.842 1.284 10.738 1.781 16.066 8.875 24.533 2.394 2.858 6.134 5.234 9.664 4.086 6.898-2.244 5.492-10.367 3.57-16.858z" data-color="1" class="icon1"></path></g></g>
</svg>
</g><g opacity="1" transform="rotate(0 136.5168 381.7226)">
<svg width="126.9663" height="22" x="136.5168" y="381.7226" version="1.1" preserveAspectRatio="none" viewBox="1.08 -29.46 171.84 29.78">
  <g transform="matrix(1 0 0 1 0 0)" class="text"><path id="id-6izo4zJp8" d="M20.54-8.46L15.80-8.46L14.12 0L12.50 0Q12.04 0 11.72-0.34Q11.40-0.68 11.40-1.22L11.40-1.22Q11.40-1.30 11.41-1.37Q11.42-1.44 11.44-1.54L11.44-1.54L12.86-8.46L7.92-8.46L6.50-1.36Q6.34-0.62 5.89-0.31Q5.44 0 4.86 0L4.86 0L3.28 0L4.98-8.46L2.06-8.46Q1.60-8.46 1.34-8.69Q1.08-8.92 1.08-9.48L1.08-9.48Q1.08-9.58 1.09-9.70Q1.10-9.82 1.12-9.94L1.12-9.94L1.28-11.08L5.36-11.08L6.66-17.60L2.02-17.60L2.28-19.08Q2.38-19.66 2.74-19.94Q3.10-20.22 3.88-20.22L3.88-20.22L7.04-20.22L8.48-27.38Q8.60-27.98 9.03-28.32Q9.46-28.66 10.06-28.66L10.06-28.66L11.66-28.66L9.98-20.22L14.92-20.22L16.60-28.66L18.18-28.66Q18.68-28.66 19.01-28.36Q19.34-28.06 19.34-27.58L19.34-27.58Q19.34-27.42 19.32-27.32L19.32-27.32L17.86-20.22L22.10-20.22L21.84-18.72Q21.74-18.14 21.37-17.87Q21-17.60 20.24-17.60L20.24-17.60L17.48-17.60L16.18-11.08L19.76-11.08Q20.24-11.08 20.50-10.85Q20.76-10.62 20.76-10.04L20.76-10.04Q20.76-9.94 20.75-9.83Q20.74-9.72 20.72-9.60L20.72-9.60L20.54-8.46ZM9.60-17.60L8.30-11.08L13.24-11.08L14.54-17.60L9.60-17.60Z M30.28-28.66L30.28-28.66Q30.80-28.66 31.05-28.53Q31.30-28.40 31.62-28L31.62-28L48.22-6.40Q48.16-6.92 48.14-7.41Q48.12-7.90 48.12-8.36L48.12-8.36L48.12-28.66L51.52-28.66L51.52 0L49.56 0Q49.10 0 48.79-0.16Q48.48-0.32 48.18-0.70L48.18-0.70L31.60-22.28Q31.64-21.78 31.66-21.30Q31.68-20.82 31.68-20.42L31.68-20.42L31.68 0L28.28 0L28.28-28.66L30.28-28.66Z M67.76-20.58L67.76-20.58Q69.98-20.58 71.77-19.84Q73.56-19.10 74.81-17.74Q76.06-16.38 76.73-14.45Q77.40-12.52 77.40-10.14L77.40-10.14Q77.40-7.74 76.73-5.82Q76.06-3.90 74.81-2.54Q73.56-1.18 71.77-0.45Q69.98 0.28 67.76 0.28L67.76 0.28Q65.54 0.28 63.75-0.45Q61.96-1.18 60.70-2.54Q59.44-3.90 58.76-5.82Q58.08-7.74 58.08-10.14L58.08-10.14Q58.08-12.52 58.76-14.45Q59.44-16.38 60.70-17.74Q61.96-19.10 63.75-19.84Q65.54-20.58 67.76-20.58ZM67.76-2.50L67.76-2.50Q70.76-2.50 72.24-4.51Q73.72-6.52 73.72-10.12L73.72-10.12Q73.72-13.74 72.24-15.76Q70.76-17.78 67.76-17.78L67.76-17.78Q66.24-17.78 65.12-17.26Q64.00-16.74 63.25-15.76Q62.50-14.78 62.13-13.35Q61.76-11.92 61.76-10.12L61.76-10.12Q61.76-8.32 62.13-6.90Q62.50-5.48 63.25-4.51Q64.00-3.54 65.12-3.02Q66.24-2.50 67.76-2.50Z M96.74-2.82L96.74-2.82Q97.90-2.82 98.87-2.93Q99.84-3.04 100.70-3.26Q101.56-3.48 102.32-3.79Q103.08-4.10 103.84-4.50L103.84-4.50L103.84-10.82L99.40-10.82Q99.02-10.82 98.79-11.04Q98.56-11.26 98.56-11.58L98.56-11.58L98.56-13.78L107.36-13.78L107.36-2.78Q106.28-2 105.11-1.42Q103.94-0.84 102.61-0.45Q101.28-0.06 99.76 0.13Q98.24 0.32 96.46 0.32L96.46 0.32Q93.34 0.32 90.74-0.75Q88.14-1.82 86.26-3.75Q84.38-5.68 83.33-8.38Q82.28-11.08 82.28-14.32L82.28-14.32Q82.28-17.60 83.31-20.30Q84.34-23 86.25-24.93Q88.16-26.86 90.87-27.92Q93.58-28.98 96.94-28.98L96.94-28.98Q98.64-28.98 100.10-28.73Q101.56-28.48 102.81-28.01Q104.06-27.54 105.12-26.87Q106.18-26.20 107.10-25.36L107.10-25.36L106-23.60Q105.66-23.06 105.12-23.06L105.12-23.06Q104.80-23.06 104.42-23.28L104.42-23.28Q103.92-23.56 103.30-23.96Q102.68-24.36 101.79-24.73Q100.90-25.10 99.69-25.36Q98.48-25.62 96.82-25.62L96.82-25.62Q94.40-25.62 92.44-24.83Q90.48-24.04 89.10-22.57Q87.72-21.10 86.98-19.01Q86.24-16.92 86.24-14.32L86.24-14.32Q86.24-11.60 87.01-9.47Q87.78-7.34 89.18-5.86Q90.58-4.38 92.50-3.60Q94.42-2.82 96.74-2.82Z M113.88-20.26L117.44-20.26L117.44-7.34Q117.44-5.04 118.50-3.78Q119.56-2.52 121.70-2.52L121.70-2.52Q123.26-2.52 124.64-3.26Q126.02-4 127.18-5.32L127.18-5.32L127.18-20.26L130.74-20.26L130.74 0L128.62 0Q127.86 0 127.66-0.74L127.66-0.74L127.38-2.92Q126.06-1.46 124.42-0.57Q122.78 0.32 120.66 0.32L120.66 0.32Q119 0.32 117.73-0.23Q116.46-0.78 115.60-1.78Q114.74-2.78 114.31-4.20Q113.88-5.62 113.88-7.34L113.88-7.34L113.88-20.26Z M138.60-20.26L142.16-20.26L142.16 0L138.60 0L138.60-20.26ZM142.96-26.62L142.96-26.62Q142.96-26.10 142.75-25.65Q142.54-25.20 142.19-24.85Q141.84-24.50 141.38-24.30Q140.92-24.10 140.40-24.10L140.40-24.10Q139.88-24.10 139.43-24.30Q138.98-24.50 138.63-24.85Q138.28-25.20 138.08-25.65Q137.88-26.10 137.88-26.62L137.88-26.62Q137.88-27.14 138.08-27.61Q138.28-28.08 138.63-28.43Q138.98-28.78 139.43-28.98Q139.88-29.18 140.40-29.18L140.40-29.18Q140.92-29.18 141.38-28.98Q141.84-28.78 142.19-28.43Q142.54-28.08 142.75-27.61Q142.96-27.14 142.96-26.62Z M150.44-29.46L154-29.46L154 0L150.44 0L150.44-29.46Z M168.02 0.32L168.02 0.32Q165.62 0.32 164.33-1.02Q163.04-2.36 163.04-4.88L163.04-4.88L163.04-17.28L160.60-17.28Q160.28-17.28 160.06-17.47Q159.84-17.66 159.84-18.06L159.84-18.06L159.84-19.48L163.16-19.90L163.98-26.16Q164.02-26.46 164.24-26.65Q164.46-26.84 164.80-26.84L164.80-26.84L166.60-26.84L166.60-19.86L172.40-19.86L172.40-17.28L166.60-17.28L166.60-5.12Q166.60-3.84 167.22-3.22Q167.84-2.60 168.82-2.60L168.82-2.60Q169.38-2.60 169.79-2.75Q170.20-2.90 170.50-3.08Q170.80-3.26 171.01-3.41Q171.22-3.56 171.38-3.56L171.38-3.56Q171.66-3.56 171.88-3.22L171.88-3.22L172.92-1.52Q172-0.66 170.70-0.17Q169.40 0.32 168.02 0.32Z"/></g>
</svg>
</g><g opacity="1" transform="rotate(0 -17.0584 331.7226)">
<svg width="434.1168" height="32" x="-17.0584" y="331.7226" version="1.1" preserveAspectRatio="none" viewBox="2.24 -26.8 369 27.200000000000003">
  <g transform="matrix(1 0 0 1 0 0)" class="companyName"><path id="id-D6z1nYkh15" d="M11.28 0L2.24 0L2.24-0.64L5.44-2.24L6.28-24.16L2.84-25.76L2.84-26.40L10.80-26.40L19.76-5.72L28.68-26.40L36.32-26.40L36.32-25.76L32.92-24.28L33.60-2.24L36.48-0.64L36.48 0L26.60 0L26.60-0.64L29.60-2.20L29.20-21.76L19.76 0.20L17.84 0.20L8.48-21.52L7.96-2.20L11.28-0.64L11.28 0Z M53.64 0.40L53.64 0.40Q50.88 0.40 48.70-0.50Q46.52-1.40 45.28-3.42Q44.04-5.44 44.04-8.76L44.04-8.76L44.04-20.44L41.12-21.76L41.12-22.40L50.92-22.40L50.92-21.76L48-20.44L48-8.96Q48-4.96 49.76-3.40Q51.52-1.84 54.48-1.84L54.48-1.84Q56.20-1.84 57.62-2.50Q59.04-3.16 59.88-4.54Q60.72-5.92 60.72-8.08L60.72-8.08L60.72-20.52L57.36-21.76L57.36-22.40L65.92-22.40L65.92-21.76L63.08-20.48L63.08-8.68Q63.08-5.44 61.88-3.44Q60.68-1.44 58.56-0.52Q56.44 0.40 53.64 0.40Z M79.24 0L70.56 0L70.56-0.64L73.40-1.96L73.40-20.48L70.56-21.76L70.56-22.40L76.52-22.40L90.04-6.36L90.04-20.48L86.52-21.76L86.52-22.40L95.12-22.40L95.12-21.76L92.28-20.48L92.28 0.16L90.44 0.16L75.68-17.24L75.68-2.08L79.24-0.64L79.24 0Z M112.04 0.40L112.04 0.40Q108.56 0.40 105.82-1.04Q103.08-2.48 101.52-5Q99.96-7.52 99.96-10.68L99.96-10.68Q99.96-13.36 100.98-15.58Q102.00-17.80 103.76-19.42Q105.52-21.04 107.80-21.94Q110.08-22.84 112.60-22.84L112.60-22.84Q114.32-22.84 115.54-22.62Q116.76-22.40 117.74-22Q118.72-21.60 119.68-21.16L119.68-21.16L119.84-15.44L119.20-15.44L116.88-19.48Q115.88-20.24 114.86-20.54Q113.84-20.84 112.60-20.84L112.60-20.84Q110.08-20.84 108.14-19.60Q106.20-18.36 105.10-16.20Q104.00-14.04 104.00-11.32L104.00-11.32Q104.00-6.64 106.34-4.12Q108.68-1.60 112.64-1.60L112.64-1.60Q113.88-1.60 114.84-1.78Q115.80-1.96 116.68-2.44L116.68-2.44L119.56-6.72L120.20-6.72L119.84-1.32Q118.40-0.56 116.54-0.08Q114.68 0.40 112.04 0.40Z M135.84 0L126.08 0L126.08-0.64L128.96-1.96L128.96-20.44L126.08-21.76L126.08-22.40L135.84-22.40L135.84-21.76L132.92-20.44L132.92-12.60L144.20-12.60L144.20-20.44L141.28-21.76L141.28-22.40L150.96-22.40L150.96-21.76L148.16-20.44L148.16-1.96L150.96-0.64L150.96 0L141.28 0L141.28-0.64L144.20-1.96L144.20-10.60L132.92-10.60L132.92-1.96L135.84-0.64L135.84 0Z M165.32 0L155.92 0L155.92-0.64L158.56-1.96L158.56-20.44L155.92-21.76L155.92-22.40L165.32-22.40L165.32-21.76L162.56-20.44L162.56-1.96L165.32-0.64L165.32 0Z M178.80 0L170.12 0L170.12-0.64L172.96-1.96L172.96-20.48L170.12-21.76L170.12-22.40L176.08-22.40L189.60-6.36L189.60-20.48L186.08-21.76L186.08-22.40L194.68-22.40L194.68-21.76L191.84-20.48L191.84 0.16L190 0.16L175.24-17.24L175.24-2.08L178.80-0.64L178.80 0Z M222.96 0.40L222.96 0.40Q220.08 0.40 217.62-0.56Q215.16-1.52 213.36-3.26Q211.56-5 210.54-7.36Q209.52-9.72 209.52-12.52L209.52-12.52Q209.52-15.60 210.66-18.20Q211.80-20.80 213.80-22.74Q215.80-24.68 218.40-25.74Q221-26.80 223.96-26.80L223.96-26.80Q226.08-26.80 227.56-26.56Q229.04-26.32 230.22-25.88Q231.40-25.44 232.52-24.88L232.52-24.88L232.76-18.16L232.12-18.16L229.24-22.96Q227.68-24 226.56-24.40Q225.44-24.80 223.96-24.80L223.96-24.80Q221-24.80 218.68-23.44Q216.36-22.08 215.04-19.68Q213.72-17.28 213.72-14.20L213.72-14.20Q213.72-10.32 215.12-7.56Q216.52-4.80 218.86-3.34Q221.20-1.88 224.12-1.88L224.12-1.88Q225.28-1.88 226.42-2.02Q227.56-2.16 228.72-2.56L228.72-2.56L228.72-9.40L225.16-11.04L225.16-11.68L235.72-11.68L235.72-11.04L232.92-9.28L232.92-2.96Q231.72-1.92 230.04-1.18Q228.36-0.44 226.52-0.02Q224.68 0.40 222.96 0.40Z M251.04 0L239.92 0L239.92-0.64L243.16-2.24L243.16-24.16L239.92-25.76L239.92-26.40L259.60-26.40L259.60-19.52L258.96-19.52L256.44-24.20L247.36-24.20L247.36-14.68L253.60-14.68L255.64-18.04L256.28-18.04L256.28-9.28L255.64-9.28L253.60-12.56L247.36-12.56L247.36-2.24L251.04-0.64L251.04 0Z M288.24 0.40L288.24 0.40Q284.12 0.40 281.12-1.28Q278.12-2.96 276.48-5.88Q274.84-8.80 274.84-12.52L274.84-12.52Q274.84-15.40 275.96-17.96Q277.08-20.52 279.02-22.52Q280.96-24.52 283.48-25.66Q286-26.80 288.84-26.80L288.84-26.80Q290.88-26.80 292.28-26.54Q293.68-26.28 294.78-25.86Q295.88-25.44 297-24.88L297-24.88L297.24-17.76L296.52-17.76L293.76-22.96Q292.40-23.92 291.30-24.36Q290.20-24.80 288.84-24.80L288.84-24.80Q286.08-24.80 283.88-23.36Q281.68-21.92 280.42-19.38Q279.16-16.84 279.16-13.52L279.16-13.52Q279.16-9.80 280.38-7.14Q281.60-4.48 283.68-3.08Q285.76-1.68 288.28-1.68L288.28-1.68Q290.36-1.68 291.78-2.24Q293.20-2.80 294.32-3.56L294.32-3.56L297-8.04L297.68-8.04L297.20-1.60Q295.44-0.72 293.44-0.16Q291.44 0.40 288.24 0.40Z M309.76 0L302.32 0L302.32-0.64L304.36-1.72L313.24-22.60L315.32-22.60L324.12-1.80L326.48-0.64L326.48 0L317.20 0L317.20-0.64L320-1.80L317.52-7.72L309.28-7.72L306.84-1.76L309.76-0.64L309.76 0ZM313.36-17.68L310.12-9.72L316.68-9.72L313.36-17.68Z M340.32 0L330.08 0L330.08-0.64L333-1.96L333-20.44L330.12-21.76L330.12-22.40L347.60-22.40L347.60-16.64L346.96-16.64L345.04-20.36L336.96-20.36L336.96-12.60L342.72-12.60L344.08-15.36L344.68-15.36L344.68-7.88L344.08-7.88L342.72-10.60L336.96-10.60L336.96-1.96L340.32-0.64L340.32 0Z M371.24 0L352.64 0L352.64-0.64L355.52-1.96L355.52-20.44L352.64-21.76L352.64-22.40L370.24-22.40L370.24-16.64L369.60-16.64L367.52-20.40L359.48-20.40L359.48-12.60L365.32-12.60L366.68-15.36L367.32-15.36L367.32-7.88L366.68-7.88L365.32-10.60L359.48-10.60L359.48-2L368.40-2L370.60-6.52L371.24-6.52L371.24 0Z"/></g>
</svg>
</g></svg></svg>